<svg viewBox="0 0 400 320" fill="none" xmlns="http://www.w3.org/2000/svg">
  <rect width="400" height="320" rx="20" fill="url(#bg)" />

  <!-- Calles -->
  <line x1="0" y1="80"  x2="400" y2="80"  stroke="white" stroke-opacity="0.06" stroke-width="18"/>
  <line x1="0" y1="160" x2="400" y2="160" stroke="white" stroke-opacity="0.06" stroke-width="18"/>
  <line x1="0" y1="240" x2="400" y2="240" stroke="white" stroke-opacity="0.06" stroke-width="18"/>
  <line x1="80"  y1="0" x2="80"  y2="320" stroke="white" stroke-opacity="0.06" stroke-width="18"/>
  <line x1="160" y1="0" x2="160" y2="320" stroke="white" stroke-opacity="0.06" stroke-width="18"/>
  <line x1="240" y1="0" x2="240" y2="320" stroke="white" stroke-opacity="0.06" stroke-width="18"/>
  <line x1="320" y1="0" x2="320" y2="320" stroke="white" stroke-opacity="0.06" stroke-width="18"/>

  <!-- Manzanas -->
  <rect x="92"  y="92"  width="56" height="56" rx="8" fill="white" fill-opacity="0.04"/>
  <rect x="172" y="92"  width="56" height="56" rx="8" fill="white" fill-opacity="0.04"/>
  <rect x="252" y="92"  width="56" height="56" rx="8" fill="white" fill-opacity="0.06"/>
  <rect x="92"  y="172" width="56" height="56" rx="8" fill="white" fill-opacity="0.06"/>
  <rect x="172" y="172" width="56" height="56" rx="8" fill="white" fill-opacity="0.04"/>
  <rect x="252" y="172" width="56" height="56" rx="8" fill="white" fill-opacity="0.04"/>
  <rect x="332" y="92"  width="52" height="56" rx="8" fill="white" fill-opacity="0.03"/>
  <rect x="332" y="172" width="52" height="56" rx="8" fill="white" fill-opacity="0.03"/>
  <rect x="12"  y="92"  width="52" height="56" rx="8" fill="white" fill-opacity="0.03"/>
  <rect x="12"  y="172" width="52" height="56" rx="8" fill="white" fill-opacity="0.03"/>

  <!-- Pin principal naranja -->
  <circle cx="200" cy="88" r="22" fill="hsl(38,95%,55%)" fill-opacity="0.18"/>
  <circle cx="200" cy="88" r="14" fill="hsl(38,95%,55%)" fill-opacity="0.35"/>
  <path d="M200 77 C194 77 189 82 189 88 C189 95 200 105 200 105 C200 105 211 95 211 88 C211 82 206 77 200 77 Z" fill="hsl(38,95%,55%)"/>
  <circle cx="200" cy="88" r="4" fill="white"/>

  <!-- Pin púrpura 1 -->
  <circle cx="120" cy="155" r="16" fill="hsl(262,80%,60%)" fill-opacity="0.2"/>
  <path d="M120 146 C115 146 111 150 111 155 C111 160 120 168 120 168 C120 168 129 160 129 155 C129 150 125 146 120 146 Z" fill="hsl(262,80%,60%)"/>
  <circle cx="120" cy="155" r="3" fill="white"/>

  <!-- Pin púrpura 2 -->
  <circle cx="300" cy="145" r="14" fill="hsl(262,80%,60%)" fill-opacity="0.15"/>
  <path d="M300 137 C296 137 292 141 292 145 C292 150 300 157 300 157 C300 157 308 150 308 145 C308 141 304 137 300 137 Z" fill="hsl(262,80%,60%)" fill-opacity="0.8"/>
  <circle cx="300" cy="145" r="2.5" fill="white"/>

  <!-- Pin pequeño naranja -->
  <path d="M160 223 C156 223 153 226 153 230 C153 234 160 240 160 240 C160 240 167 234 167 230 C167 226 164 223 160 223 Z" fill="hsl(38,95%,55%)" fill-opacity="0.7"/>
  <circle cx="160" cy="230" r="2" fill="white"/>

  <!-- Pin pequeño púrpura -->
  <path d="M340 213 C336 213 333 216 333 220 C333 224 340 230 340 230 C340 230 347 224 347 220 C347 216 344 213 340 213 Z" fill="hsl(262,80%,60%)" fill-opacity="0.6"/>
  <circle cx="340" cy="220" r="2" fill="white"/>

  <!-- Card flotante evento principal -->
  <rect x="212" y="52" width="120" height="44" rx="10" fill="hsl(222,40%,14%)" stroke="white" stroke-opacity="0.12" stroke-width="1"/>
  <rect x="222" y="62" width="6" height="6" rx="2" fill="hsl(38,95%,55%)"/>
  <rect x="234" y="63" width="52" height="5" rx="2.5" fill="white" fill-opacity="0.7"/>
  <rect x="234" y="72" width="35" height="4" rx="2" fill="white" fill-opacity="0.3"/>
  <rect x="222" y="82" width="28" height="4" rx="2" fill="hsl(262,80%,60%)" fill-opacity="0.6"/>
  <rect x="254" y="82" width="18" height="4" rx="2" fill="white" fill-opacity="0.15"/>

  <!-- Card flotante evento 2 -->
  <rect x="18" y="150" width="90" height="36" rx="8" fill="hsl(222,40%,14%)" stroke="white" stroke-opacity="0.1" stroke-width="1"/>
  <rect x="26" y="158" width="5" height="5" rx="1.5" fill="hsl(262,80%,60%)"/>
  <rect x="36" y="159" width="40" height="4" rx="2" fill="white" fill-opacity="0.6"/>
  <rect x="36" y="167" width="28" height="3" rx="1.5" fill="white" fill-opacity="0.25"/>
  <rect x="26" y="174" width="22" height="3.5" rx="1.75" fill="hsl(38,95%,55%)" fill-opacity="0.5"/>

  <!-- Líneas de conexión -->
  <line x1="200" y1="88" x2="120" y2="155" stroke="hsl(262,80%,60%)" stroke-opacity="0.2" stroke-width="1.5" stroke-dasharray="4 4"/>
  <line x1="200" y1="88" x2="300" y2="145" stroke="hsl(38,95%,55%)" stroke-opacity="0.2" stroke-width="1.5" stroke-dasharray="4 4"/>

  <!-- Avatares usuarios -->
  <circle cx="175" cy="108" r="10" fill="hsl(222,40%,18%)" stroke="hsl(262,80%,60%)" stroke-width="1.5"/>
  <circle cx="175" cy="104" r="3.5" fill="hsl(262,80%,60%)" fill-opacity="0.6"/>
  <path d="M168 116 Q175 112 182 116" stroke="hsl(262,80%,60%)" stroke-opacity="0.6" stroke-width="1.2" fill="none"/>
  <circle cx="224" cy="108" r="10" fill="hsl(222,40%,18%)" stroke="hsl(38,95%,55%)" stroke-width="1.5"/>
  <circle cx="224" cy="104" r="3.5" fill="hsl(38,95%,55%)" fill-opacity="0.6"/>
  <path d="M217 116 Q224 112 231 116" stroke="hsl(38,95%,55%)" stroke-opacity="0.6" stroke-width="1.2" fill="none"/>

  <defs>
    <radialGradient id="bg" cx="30%" cy="30%" r="80%">
      <stop offset="0%" stop-color="hsl(222,40%,10%)"/>
      <stop offset="100%" stop-color="hsl(222,47%,6%)"/>
    </radialGradient>
  </defs>
</svg>
